<svg width="194" height="34" viewBox="0 0 194 34" fill="none" xmlns="http://www.w3.org/2000/svg">
<path d="M11.7074 21.2273H16.4801L19.3068 24.892L21.3239 27.2784L26.1676 33.5H21.054L17.7585 29.3239L16.3523 27.3352L11.7074 21.2273ZM26.8636 16.4545C26.8636 19.589 26.2765 22.2737 25.1023 24.5085C23.9375 26.7339 22.3466 28.4384 20.3295 29.6222C18.322 30.8059 16.0445 31.3977 13.4972 31.3977C10.9498 31.3977 8.66761 30.8059 6.65057 29.6222C4.64299 28.429 3.05208 26.7197 1.87784 24.4943C0.713068 22.2595 0.130682 19.5795 0.130682 16.4545C0.130682 13.3201 0.713068 10.6402 1.87784 8.41477C3.05208 6.17992 4.64299 4.47064 6.65057 3.28693C8.66761 2.10322 10.9498 1.51136 13.4972 1.51136C16.0445 1.51136 18.322 2.10322 20.3295 3.28693C22.3466 4.47064 23.9375 6.17992 25.1023 8.41477C26.2765 10.6402 26.8636 13.3201 26.8636 16.4545ZM21.5653 16.4545C21.5653 14.2481 21.2197 12.3873 20.5284 10.8722C19.8466 9.34754 18.8996 8.19697 17.6875 7.42045C16.4754 6.63447 15.0786 6.24148 13.4972 6.24148C11.9157 6.24148 10.5189 6.63447 9.30682 7.42045C8.0947 8.19697 7.14299 9.34754 6.4517 10.8722C5.76989 12.3873 5.42898 14.2481 5.42898 16.4545C5.42898 18.661 5.76989 20.5265 6.4517 22.0511C7.14299 23.5663 8.0947 24.7169 9.30682 25.5028C10.5189 26.2794 11.9157 26.6676 13.4972 26.6676C15.0786 26.6676 16.4754 26.2794 17.6875 25.5028C18.8996 24.7169 19.8466 23.5663 20.5284 22.0511C21.2197 20.5265 21.5653 18.661 21.5653 16.4545ZM31.9577 31V9.18182H36.9435V12.8182H37.1707C37.5685 11.5587 38.2503 10.5881 39.2162 9.90625C40.1916 9.21496 41.3043 8.86932 42.5543 8.86932C42.8384 8.86932 43.1556 8.88352 43.506 8.91193C43.8658 8.93087 44.1641 8.96401 44.4009 9.01136V13.7415C44.183 13.6657 43.8374 13.5994 43.3639 13.5426C42.8999 13.4763 42.4501 13.4432 42.0145 13.4432C41.077 13.4432 40.2342 13.6468 39.4861 14.054C38.7474 14.4517 38.1651 15.0057 37.7389 15.7159C37.3128 16.4261 37.0997 17.2453 37.0997 18.1733V31H31.9577Z" fill="black"/>
<path d="M54.4665 31L46.2562 1.90909H51.9239L57.1653 23.2869H57.4352L63.0318 1.90909H68.1881L73.7989 23.3011H74.0545L79.296 1.90909H84.9636L76.7534 31H71.5545L65.7307 10.5881H65.5034L59.6653 31H54.4665ZM92.7423 31.4403C91.3598 31.4403 90.1145 31.1941 89.0065 30.7017C87.9081 30.1998 87.0368 29.4612 86.3929 28.4858C85.7584 27.5104 85.4412 26.3078 85.4412 24.8778C85.4412 23.6468 85.6685 22.6288 86.123 21.8239C86.5776 21.0189 87.1978 20.375 87.9838 19.892C88.7698 19.4091 89.6552 19.0445 90.6401 18.7983C91.6344 18.5426 92.6618 18.358 93.7224 18.2443C95.0009 18.1117 96.0378 17.9934 96.8332 17.8892C97.6287 17.7756 98.2063 17.6051 98.5662 17.3778C98.9355 17.1411 99.1202 16.7765 99.1202 16.2841V16.1989C99.1202 15.1288 98.8029 14.3002 98.1685 13.7131C97.534 13.1259 96.6202 12.8324 95.427 12.8324C94.1675 12.8324 93.1685 13.107 92.4298 13.6562C91.7007 14.2055 91.2082 14.8542 90.9526 15.6023L86.1514 14.9205C86.5302 13.5947 87.1552 12.4867 88.0264 11.5966C88.8976 10.697 89.963 10.0246 91.2224 9.57955C92.4819 9.125 93.874 8.89773 95.3986 8.89773C96.4497 8.89773 97.4961 9.02083 98.5378 9.26705C99.5795 9.51326 100.531 9.92045 101.393 10.4886C102.255 11.0473 102.946 11.8097 103.467 12.7756C103.997 13.7415 104.262 14.9489 104.262 16.3977V31H99.319V28.0028H99.1486C98.8361 28.6089 98.3957 29.1771 97.8276 29.7074C97.2688 30.2282 96.5634 30.6496 95.7111 30.9716C94.8683 31.2841 93.8787 31.4403 92.7423 31.4403ZM94.0776 27.6619C95.1098 27.6619 96.0046 27.4583 96.7622 27.0511C97.5198 26.6345 98.1022 26.0852 98.5094 25.4034C98.926 24.7216 99.1344 23.9782 99.1344 23.1733V20.6023C98.9734 20.7348 98.6988 20.858 98.3105 20.9716C97.9317 21.0852 97.5056 21.1847 97.0321 21.2699C96.5586 21.3551 96.0899 21.4309 95.6259 21.4972C95.1618 21.5634 94.7594 21.6203 94.4185 21.6676C93.6514 21.7718 92.9649 21.9422 92.3588 22.179C91.7527 22.4157 91.2745 22.7472 90.9241 23.1733C90.5738 23.59 90.3986 24.1297 90.3986 24.7926C90.3986 25.7396 90.7442 26.4545 91.4355 26.9375C92.1268 27.4205 93.0075 27.6619 94.0776 27.6619ZM109.733 31V9.18182H114.875V31H109.733ZM112.318 6.08523C111.504 6.08523 110.803 5.81534 110.216 5.27557C109.629 4.72632 109.335 4.06818 109.335 3.30114C109.335 2.52462 109.629 1.86648 110.216 1.3267C110.803 0.777461 111.504 0.50284 112.318 0.50284C113.142 0.50284 113.843 0.777461 114.42 1.3267C115.007 1.86648 115.301 2.52462 115.301 3.30114C115.301 4.06818 115.007 4.72632 114.42 5.27557C113.843 5.81534 113.142 6.08523 112.318 6.08523ZM131.357 9.18182V13.1591H118.815V9.18182H131.357ZM121.911 3.95455H127.053V24.4375C127.053 25.1288 127.157 25.6591 127.366 26.0284C127.584 26.3883 127.868 26.6345 128.218 26.767C128.568 26.8996 128.957 26.9659 129.383 26.9659C129.705 26.9659 129.998 26.9422 130.263 26.8949C130.538 26.8475 130.746 26.8049 130.888 26.767L131.755 30.7869C131.48 30.8816 131.087 30.9858 130.576 31.0994C130.074 31.2131 129.459 31.2794 128.729 31.2983C127.442 31.3362 126.281 31.142 125.249 30.7159C124.217 30.2803 123.398 29.608 122.792 28.6989C122.195 27.7898 121.902 26.6534 121.911 25.2898V3.95455ZM145.382 31.4261C143.195 31.4261 141.306 30.9716 139.715 30.0625C138.133 29.1439 136.916 27.8466 136.064 26.1705C135.212 24.4848 134.786 22.5009 134.786 20.2188C134.786 17.9744 135.212 16.0047 136.064 14.3097C136.926 12.6051 138.129 11.2794 139.672 10.3324C141.216 9.37595 143.029 8.89773 145.113 8.89773C146.457 8.89773 147.726 9.11553 148.919 9.55114C150.122 9.97727 151.183 10.6402 152.101 11.5398C153.029 12.4394 153.758 13.5852 154.289 14.9773C154.819 16.3598 155.084 18.0076 155.084 19.9205V21.4972H137.201V18.0312H150.155C150.146 17.0464 149.933 16.1705 149.516 15.4034C149.099 14.6269 148.517 14.0161 147.769 13.571C147.03 13.1259 146.168 12.9034 145.184 12.9034C144.132 12.9034 143.209 13.1591 142.414 13.6705C141.618 14.1723 140.998 14.8352 140.553 15.6591C140.117 16.4735 139.895 17.3684 139.885 18.3438V21.3693C139.885 22.6383 140.117 23.7273 140.581 24.6364C141.045 25.536 141.694 26.2273 142.527 26.7102C143.361 27.1837 144.336 27.4205 145.453 27.4205C146.202 27.4205 146.879 27.3163 147.485 27.108C148.091 26.8902 148.616 26.5729 149.061 26.1562C149.506 25.7396 149.843 25.2235 150.07 24.608L154.871 25.1477C154.568 26.4167 153.99 27.5246 153.138 28.4716C152.295 29.4091 151.216 30.1383 149.899 30.6591C148.583 31.1705 147.077 31.4261 145.382 31.4261ZM159.734 31V9.18182H164.72V12.8182H164.947C165.345 11.5587 166.027 10.5881 166.993 9.90625C167.968 9.21496 169.081 8.86932 170.331 8.86932C170.615 8.86932 170.932 8.88352 171.283 8.91193C171.642 8.93087 171.941 8.96401 172.177 9.01136V13.7415C171.96 13.6657 171.614 13.5994 171.14 13.5426C170.676 13.4763 170.227 13.4432 169.791 13.4432C168.854 13.4432 168.011 13.6468 167.263 14.054C166.524 14.4517 165.942 15.0057 165.515 15.7159C165.089 16.4261 164.876 17.2453 164.876 18.1733V31H159.734ZM193.138 14.9489L188.45 15.4602C188.318 14.9867 188.086 14.5417 187.754 14.125C187.432 13.7083 186.997 13.3722 186.448 13.1165C185.898 12.8608 185.226 12.733 184.431 12.733C183.36 12.733 182.461 12.965 181.732 13.429C181.012 13.893 180.657 14.4943 180.666 15.233C180.657 15.8674 180.889 16.3835 181.362 16.7812C181.845 17.179 182.641 17.5057 183.749 17.7614L187.47 18.5568C189.535 19.0019 191.069 19.7074 192.073 20.6733C193.086 21.6392 193.597 22.9034 193.607 24.4659C193.597 25.839 193.195 27.0511 192.399 28.1023C191.613 29.1439 190.52 29.9583 189.118 30.5455C187.717 31.1326 186.107 31.4261 184.288 31.4261C181.618 31.4261 179.468 30.8674 177.84 29.75C176.211 28.6231 175.24 27.0559 174.928 25.0483L179.942 24.5653C180.169 25.5502 180.652 26.2936 181.391 26.7955C182.129 27.2973 183.091 27.5483 184.274 27.5483C185.496 27.5483 186.476 27.2973 187.215 26.7955C187.963 26.2936 188.337 25.6733 188.337 24.9347C188.337 24.3097 188.095 23.7936 187.612 23.3864C187.139 22.9792 186.4 22.6667 185.396 22.4489L181.675 21.6676C179.582 21.232 178.034 20.4981 177.03 19.4659C176.026 18.4242 175.529 17.108 175.538 15.517C175.529 14.1723 175.894 13.0076 176.632 12.0227C177.38 11.0284 178.417 10.2614 179.743 9.72159C181.078 9.17235 182.617 8.89773 184.36 8.89773C186.916 8.89773 188.929 9.44223 190.396 10.5312C191.874 11.6203 192.788 13.0928 193.138 14.9489Z" fill="#1F33E8"/>
</svg>
