<svg width="290" height="50" viewBox="0 0 290 50" fill="none" xmlns="http://www.w3.org/2000/svg">
<path d="M17.5611 31.3409H24.7202L28.9602 36.8381L31.9858 40.4176L39.2514 49.75H31.581L26.6378 43.4858L24.5284 40.5028L17.5611 31.3409ZM40.2955 24.1818C40.2955 28.8835 39.4148 32.9105 37.6534 36.2628C35.9063 39.6009 33.5199 42.1577 30.4943 43.9332C27.483 45.7088 24.0668 46.5966 20.2457 46.5966C16.4247 46.5966 13.0014 45.7088 9.97585 43.9332C6.96449 42.1435 4.57813 39.5795 2.81676 36.2415C1.0696 32.8892 0.196023 28.8693 0.196023 24.1818C0.196023 19.4801 1.0696 15.4602 2.81676 12.1222C4.57813 8.76989 6.96449 6.20597 9.97585 4.4304C13.0014 2.65483 16.4247 1.76704 20.2457 1.76704C24.0668 1.76704 27.483 2.65483 30.4943 4.4304C33.5199 6.20597 35.9063 8.76989 37.6534 12.1222C39.4148 15.4602 40.2955 19.4801 40.2955 24.1818ZM32.348 24.1818C32.348 20.8722 31.8295 18.081 30.7926 15.8082C29.7699 13.5213 28.3494 11.7955 26.5312 10.6307C24.7131 9.4517 22.6179 8.86222 20.2457 8.86222C17.8736 8.86222 15.7784 9.4517 13.9602 10.6307C12.142 11.7955 10.7145 13.5213 9.67756 15.8082C8.65483 18.081 8.14347 20.8722 8.14347 24.1818C8.14347 27.4915 8.65483 30.2898 9.67756 32.5767C10.7145 34.8494 12.142 36.5753 13.9602 37.7543C15.7784 38.919 17.8736 39.5014 20.2457 39.5014C22.6179 39.5014 24.7131 38.919 26.5312 37.7543C28.3494 36.5753 29.7699 34.8494 30.7926 32.5767C31.8295 30.2898 32.348 27.4915 32.348 24.1818ZM47.7865 46V13.2727H55.2652V18.7273H55.6061C56.2027 16.8381 57.2254 15.3821 58.6743 14.3594C60.1374 13.3224 61.8064 12.804 63.6814 12.804C64.1075 12.804 64.5834 12.8253 65.1089 12.8679C65.6487 12.8963 66.0962 12.946 66.4513 13.017V20.1122C66.1246 19.9986 65.6061 19.8991 64.8959 19.8139C64.1999 19.7145 63.5251 19.6648 62.8717 19.6648C61.4655 19.6648 60.2013 19.9702 59.0791 20.581C57.9712 21.1776 57.0976 22.0085 56.4584 23.0739C55.8192 24.1392 55.4996 25.3679 55.4996 26.7599V46H47.7865Z" fill="black"/>
<path d="M81.3997 46L69.0844 2.36364H77.5858L85.448 34.4304H85.8528L94.2477 2.36364H101.982L110.398 34.4517H110.782L118.644 2.36364H127.145L114.83 46H107.032L98.296 15.3821H97.9551L89.198 46H81.3997ZM138.663 46.6605C136.59 46.6605 134.722 46.2912 133.06 45.5526C131.412 44.7997 130.105 43.6918 129.139 42.2287C128.188 40.7656 127.712 38.9616 127.712 36.8168C127.712 34.9702 128.053 33.4432 128.735 32.2358C129.416 31.0284 130.347 30.0625 131.526 29.3381C132.705 28.6136 134.033 28.0668 135.51 27.6974C137.002 27.3139 138.543 27.0369 140.134 26.8665C142.051 26.6676 143.607 26.4901 144.8 26.3338C145.993 26.1634 146.86 25.9077 147.399 25.5668C147.953 25.2116 148.23 24.6648 148.23 23.9261V23.7983C148.23 22.1932 147.754 20.9503 146.803 20.0696C145.851 19.1889 144.48 18.7486 142.69 18.7486C140.801 18.7486 139.303 19.1605 138.195 19.9844C137.101 20.8082 136.362 21.7812 135.979 22.9034L128.777 21.8807C129.345 19.892 130.283 18.2301 131.59 16.8949C132.896 15.5455 134.494 14.5369 136.384 13.8693C138.273 13.1875 140.361 12.8466 142.648 12.8466C144.225 12.8466 145.794 13.0313 147.357 13.4006C148.919 13.7699 150.347 14.3807 151.639 15.233C152.932 16.071 153.969 17.2145 154.75 18.6634C155.546 20.1122 155.943 21.9233 155.943 24.0966V46H148.529V41.5043H148.273C147.804 42.4134 147.144 43.2656 146.291 44.0611C145.453 44.8423 144.395 45.4744 143.117 45.9574C141.852 46.4261 140.368 46.6605 138.663 46.6605ZM140.666 40.9929C142.215 40.9929 143.557 40.6875 144.693 40.0767C145.83 39.4517 146.703 38.6278 147.314 37.6051C147.939 36.5824 148.252 35.4673 148.252 34.2599V30.4034C148.01 30.6023 147.598 30.7869 147.016 30.9574C146.448 31.1278 145.808 31.277 145.098 31.4048C144.388 31.5327 143.685 31.6463 142.989 31.7457C142.293 31.8452 141.689 31.9304 141.178 32.0014C140.027 32.1577 138.997 32.4134 138.088 32.7685C137.179 33.1236 136.462 33.6207 135.936 34.2599C135.411 34.8849 135.148 35.6946 135.148 36.6889C135.148 38.1094 135.666 39.1818 136.703 39.9062C137.74 40.6307 139.061 40.9929 140.666 40.9929ZM163.999 46V13.2727H171.712V46H163.999ZM167.877 8.62784C166.655 8.62784 165.604 8.22301 164.723 7.41335C163.843 6.58949 163.402 5.60227 163.402 4.4517C163.402 3.28693 163.843 2.29971 164.723 1.49005C165.604 0.666191 166.655 0.25426 167.877 0.25426C169.113 0.25426 170.164 0.666191 171.03 1.49005C171.911 2.29971 172.351 3.28693 172.351 4.4517C172.351 5.60227 171.911 6.58949 171.03 7.41335C170.164 8.22301 169.113 8.62784 167.877 8.62784ZM196.286 13.2727V19.2386H177.472V13.2727H196.286ZM182.117 5.43182H189.83V36.1562C189.83 37.1932 189.986 37.9886 190.299 38.5426C190.625 39.0824 191.051 39.4517 191.577 39.6506C192.103 39.8494 192.685 39.9489 193.324 39.9489C193.807 39.9489 194.248 39.9134 194.645 39.8423C195.057 39.7713 195.37 39.7074 195.583 39.6506L196.882 45.6804C196.471 45.8224 195.881 45.9787 195.114 46.1491C194.361 46.3196 193.438 46.419 192.344 46.4474C190.412 46.5043 188.672 46.2131 187.124 45.5739C185.576 44.9205 184.347 43.9119 183.438 42.5483C182.543 41.1847 182.103 39.4801 182.117 37.4347V5.43182ZM217.174 46.6392C213.892 46.6392 211.059 45.9574 208.672 44.5938C206.3 43.2159 204.475 41.2699 203.196 38.7557C201.918 36.2273 201.279 33.2514 201.279 29.8281C201.279 26.4616 201.918 23.5071 203.196 20.9645C204.489 18.4077 206.293 16.419 208.608 14.9986C210.924 13.5639 213.644 12.8466 216.769 12.8466C218.786 12.8466 220.689 13.1733 222.479 13.8267C224.283 14.4659 225.874 15.4602 227.252 16.8097C228.644 18.1591 229.738 19.8778 230.533 21.9659C231.328 24.0398 231.726 26.5114 231.726 29.3807V31.7457H204.901V26.5469H224.333C224.318 25.0696 223.999 23.7557 223.374 22.6051C222.749 21.4403 221.875 20.5241 220.753 19.8565C219.645 19.1889 218.353 18.8551 216.875 18.8551C215.299 18.8551 213.914 19.2386 212.72 20.0057C211.527 20.7585 210.597 21.7528 209.929 22.9886C209.276 24.2102 208.942 25.5526 208.928 27.0156V31.554C208.928 33.4574 209.276 35.0909 209.972 36.4545C210.668 37.804 211.641 38.8409 212.891 39.5653C214.141 40.2756 215.604 40.6307 217.28 40.6307C218.402 40.6307 219.418 40.4744 220.327 40.1619C221.236 39.8352 222.024 39.3594 222.692 38.7344C223.36 38.1094 223.864 37.3352 224.205 36.4119L231.407 37.2216C230.952 39.125 230.086 40.7869 228.807 42.2074C227.543 43.6136 225.924 44.7074 223.949 45.4886C221.975 46.2557 219.716 46.6392 217.174 46.6392ZM238.551 46V13.2727H246.03V18.7273H246.371C246.968 16.8381 247.99 15.3821 249.439 14.3594C250.902 13.3224 252.571 12.804 254.446 12.804C254.872 12.804 255.348 12.8253 255.874 12.8679C256.414 12.8963 256.861 12.946 257.216 13.017V20.1122C256.889 19.9986 256.371 19.8991 255.661 19.8139C254.965 19.7145 254.29 19.6648 253.637 19.6648C252.23 19.6648 250.966 19.9702 249.844 20.581C248.736 21.1776 247.862 22.0085 247.223 23.0739C246.584 24.1392 246.264 25.3679 246.264 26.7599V46H238.551ZM288.507 21.9233L281.476 22.6903C281.277 21.9801 280.929 21.3125 280.432 20.6875C279.949 20.0625 279.295 19.5582 278.471 19.1747C277.648 18.7912 276.639 18.5994 275.446 18.5994C273.841 18.5994 272.491 18.9474 271.398 19.6435C270.318 20.3395 269.785 21.2415 269.799 22.3494C269.785 23.3011 270.133 24.0753 270.844 24.6719C271.568 25.2685 272.761 25.7585 274.423 26.142L280.005 27.3352C283.102 28.0028 285.403 29.0611 286.909 30.5099C288.429 31.9588 289.196 33.8551 289.21 36.1989C289.196 38.2585 288.592 40.0767 287.399 41.6534C286.22 43.2159 284.579 44.4375 282.477 45.3182C280.375 46.1989 277.96 46.6392 275.233 46.6392C271.227 46.6392 268.003 45.8011 265.559 44.125C263.116 42.4347 261.66 40.0838 261.192 37.0724L268.713 36.348C269.054 37.8253 269.778 38.9403 270.886 39.6932C271.994 40.446 273.436 40.8224 275.211 40.8224C277.044 40.8224 278.514 40.446 279.622 39.6932C280.744 38.9403 281.305 38.0099 281.305 36.902C281.305 35.9645 280.943 35.1903 280.219 34.5795C279.508 33.9687 278.4 33.5 276.895 33.1733L271.312 32.0014C268.173 31.348 265.851 30.2472 264.345 28.6989C262.839 27.1364 262.094 25.1619 262.108 22.7756C262.094 20.7585 262.64 19.0114 263.748 17.5341C264.871 16.0426 266.426 14.892 268.415 14.0824C270.417 13.2585 272.726 12.8466 275.339 12.8466C279.174 12.8466 282.193 13.6634 284.395 15.2969C286.611 16.9304 287.981 19.1392 288.507 21.9233Z" fill="#1F33E8"/>
</svg>
