<svg width="16" height="16" viewBox="0 0 16 16" fill="none" xmlns="http://www.w3.org/2000/svg">
<path d="M13.6585 0.928636C14.049 0.538116 14.6822 0.538106 15.0727 0.928636C15.4632 1.31916 15.4632 1.95233 15.0727 2.34285L9.4158 7.99976L15.0727 13.6566C15.4632 14.0471 15.4632 14.6803 15.0727 15.0708C14.6822 15.4613 14.049 15.4613 13.6585 15.0708L8.0016 9.41396L2.34481 15.0708C2.3387 15.0769 2.33254 15.0829 2.32632 15.0888C1.93455 15.4612 1.31501 15.4552 0.930593 15.0708C0.637703 14.7779 0.564473 14.3485 0.710923 13.9874C0.759733 13.867 0.832963 13.7542 0.930593 13.6566L6.5874 7.99976L0.930593 2.3429C0.540063 1.95238 0.540063 1.31921 0.930593 0.928686C1.32111 0.538156 1.95428 0.538156 2.3448 0.928686L8.0016 6.58546L13.6585 0.928636Z" fill="#272937" fill-opacity="0.35"/>
</svg>
