<svg width="21" height="20" viewBox="0 0 21 20" fill="none" xmlns="http://www.w3.org/2000/svg">
<path d="M6.50196 6.50001C6.89248 6.10949 7.52565 6.10949 7.91617 6.50001L10.002 8.58581L12.0877 6.50001C12.4783 6.10949 13.1114 6.10949 13.502 6.50001C13.8925 6.89054 13.8925 7.5237 13.502 7.91423L11.4162 10L13.502 12.0858C13.8925 12.4763 13.8925 13.1095 13.502 13.5C13.1114 13.8905 12.4783 13.8905 12.0877 13.5L10.002 11.4142L7.91617 13.5C7.52564 13.8905 6.89248 13.8905 6.50195 13.5C6.11143 13.1095 6.11143 12.4763 6.50195 12.0858L8.5877 10L6.50196 7.91423C6.11143 7.5237 6.11143 6.89054 6.50196 6.50001Z" fill="#272937"/>
<path fill-rule="evenodd" clip-rule="evenodd" d="M20.002 10C20.002 15.5228 15.5248 20 10.002 20C4.47911 20 0.00195312 15.5228 0.00195312 10C0.00195312 4.47715 4.47911 0 10.002 0C15.5248 0 20.002 4.47715 20.002 10ZM18.002 10C18.002 14.4183 14.4202 18 10.002 18C5.58368 18 2.00195 14.4183 2.00195 10C2.00195 5.58172 5.58368 2 10.002 2C14.4202 2 18.002 5.58172 18.002 10Z" fill="#272937"/>
</svg>
