<svg width="17" height="20" viewBox="0 0 17 20" fill="none" xmlns="http://www.w3.org/2000/svg">
<path d="M8.43433 0.0658641L2.99731 1.87836C2.43131 2.06686 2.02832 2.62576 2.02832 3.22206V17.9096H1.02832C0.47632 17.9096 0.0283203 18.3573 0.0283203 18.9096C0.0283203 19.4619 0.47632 19.9096 1.02832 19.9096H13.0283H15.0283C15.5803 19.9096 16.0283 19.4619 16.0283 18.9096C16.0283 18.3573 15.5803 17.9096 15.0283 17.9096H14.0283V3.90956C14.0283 2.25266 12.6853 0.909564 11.0283 0.909564L9.98831 0.912761C9.84331 0.203361 9.11333 -0.160536 8.43433 0.0658641ZM8.02832 2.31586C8.02832 3.21576 8.02832 6.09176 8.02832 8.90956C7.47632 8.90956 7.02832 9.35726 7.02832 9.90956C7.02832 10.4619 7.47632 10.9096 8.02832 10.9096C8.02832 13.9216 8.02832 17.0135 8.02832 17.9096H4.02832V3.65956L8.02832 2.31586ZM10.0283 2.90956H11.0283C11.5803 2.90956 12.0283 3.35726 12.0283 3.90956V17.9096H10.0283C10.0283 15.9904 10.0283 5.72486 10.0283 2.90956Z" fill="#272937" fill-opacity="0.35"/>
</svg>
