<svg width="24" height="24" viewBox="0 0 24 24" fill="none" xmlns="http://www.w3.org/2000/svg">
<path fill-rule="evenodd" clip-rule="evenodd" d="M16.0001 12C16.0001 14.2091 14.2092 16 12.0001 16C9.79097 16 8.0001 14.2091 8.0001 12C8.0001 9.79086 9.79097 8 12.0001 8C14.2092 8 16.0001 9.79086 16.0001 12ZM14.0001 12C14.0001 13.1046 13.1047 14 12.0001 14C10.8955 14 10.0001 13.1046 10.0001 12C10.0001 10.8954 10.8955 10 12.0001 10C13.1047 10 14.0001 10.8954 14.0001 12Z" fill="#272937" fill-opacity="0.35"/>
<path fill-rule="evenodd" clip-rule="evenodd" d="M22.6059 12.7781C22.8745 12.2893 22.8745 11.7107 22.6059 11.2219C21.5011 9.21142 18.0534 4 12.0001 4C5.94677 4 2.49915 9.21141 1.39435 11.2219C1.12571 11.7107 1.12571 12.2893 1.39435 12.7781C2.49915 14.7886 5.94677 20 12.0001 20C18.0534 20 21.5011 14.7886 22.6059 12.7781ZM20.7495 12C20.2262 11.0814 19.2538 9.61152 17.8334 8.35493C16.3304 7.02516 14.4072 6 12.0001 6C9.59298 6 7.66981 7.02516 6.16677 8.35493C4.74644 9.61152 3.77399 11.0814 3.25071 12C3.77399 12.9186 4.74644 14.3885 6.16677 15.6451C7.66981 16.9748 9.59298 18 12.0001 18C14.4072 18 16.3304 16.9748 17.8334 15.6451C19.2538 14.3885 20.2262 12.9186 20.7495 12Z" fill="#272937" fill-opacity="0.35"/>
</svg>
