<svg width="24" height="24" viewBox="0 0 24 24" fill="none" xmlns="http://www.w3.org/2000/svg">
<path fill-rule="evenodd" clip-rule="evenodd" d="M3.41431 3.00005C3.02379 2.60952 2.39062 2.60952 2.0001 3.00005C1.60958 3.39057 1.60958 4.02374 2.0001 4.41426L4.63205 7.04621C2.99403 8.55552 1.92448 10.2572 1.39435 11.2219C1.12571 11.7108 1.12571 12.2893 1.39435 12.7782C2.49915 14.7886 5.94677 20.0001 12.0001 20.0001C13.7147 20.0001 15.2202 19.5819 16.5227 18.9369L19.5859 22.0001C19.9764 22.3906 20.6096 22.3906 21.0001 22.0001C21.3906 21.6095 21.3906 20.9764 21.0001 20.5858L18.2746 17.8604L3.41431 3.00005ZM3.25071 12C3.75923 11.1073 4.69194 9.69405 6.04764 8.4618L8.23423 10.6484C8.08267 11.0706 8.0001 11.5257 8.0001 12C8.0001 14.2092 9.79096 16.0001 12.0001 16.0001C12.4745 16.0001 12.9295 15.9175 13.3518 15.7659L15.0097 17.4239C14.104 17.7849 13.1028 18.0001 12.0001 18.0001C9.59297 18.0001 7.66981 16.9749 6.16676 15.6451C4.74644 14.3885 3.77399 12.9187 3.25071 12Z" fill="#272937" fill-opacity="0.35"/>
<path d="M15.9396 12.6969L11.3033 8.06054C11.5296 8.02079 11.7624 8.00006 12.0001 8.00006C14.2092 8.00006 16.0001 9.79092 16.0001 12C16.0001 12.2377 15.9794 12.4706 15.9396 12.6969Z" fill="#272937" fill-opacity="0.35"/>
<path d="M18.3767 15.1339C19.5046 14.0071 20.2958 12.7964 20.7495 12C20.2262 11.0814 19.2538 9.61156 17.8334 8.35497C16.3304 7.02519 14.4072 6.00004 12.0001 6.00004C11.1401 6.00004 10.3419 6.13089 9.60252 6.35974L8.04523 4.80244C9.21218 4.30773 10.5292 4.00003 12.0001 4.00003C18.0534 4.00003 21.501 9.21145 22.6058 11.2219C22.8745 11.7108 22.8745 12.2893 22.6058 12.7782C22.1228 13.6573 21.1918 15.1483 19.7909 16.5481L18.3767 15.1339Z" fill="#272937" fill-opacity="0.35"/>
</svg>
