<svg width="18" height="18" viewBox="0 0 18 18" fill="none" xmlns="http://www.w3.org/2000/svg">
<path fill-rule="evenodd" clip-rule="evenodd" d="M0.666626 2.16667C0.666626 1.24619 1.41282 0.5 2.33329 0.5H15.6666C16.5871 0.5 17.3333 1.24619 17.3333 2.16667V2.37378C17.3333 2.77748 17.1868 3.16747 16.921 3.47128L11.9123 9.19542C11.6465 9.49917 11.5 9.88917 11.5 10.2929V15.1321C11.5 15.8494 11.0409 16.4863 10.3604 16.7133L7.59679 17.6344C7.05721 17.8143 6.49996 17.4126 6.49996 16.8438V10.2929C6.49996 9.88917 6.35343 9.49917 6.08758 9.19542L1.079 3.47128C0.813159 3.16747 0.666626 2.77748 0.666626 2.37378V2.16667ZM2.33329 2.37378V2.16667H15.6666V2.37378L10.658 8.09792C10.1264 8.7055 9.83329 9.4855 9.83329 10.2929V15.1321L8.16663 15.6877V10.2929C8.16663 9.4855 7.87354 8.7055 7.34188 8.09792L2.33329 2.37378Z" fill="#272937"/>
</svg>
