<svg width="22" height="22" viewBox="0 0 22 22" fill="none" xmlns="http://www.w3.org/2000/svg">
<path d="M4.26849 16.5562L10.2642 10.5605L4.26849 4.56485C4.22374 4.5201 4.18459 4.47188 4.15103 4.42105C3.93945 4.10062 3.95018 3.67661 4.18318 3.36667C4.20892 3.33245 4.23734 3.29963 4.26849 3.26849C4.36419 3.17279 4.47579 3.10267 4.59478 3.05814C4.75398 2.99856 4.92642 2.98477 5.09175 3.01678C5.26508 3.05034 5.4306 3.13424 5.56485 3.26849L12.2087 9.91231C12.3806 10.0843 12.4772 10.3174 12.4772 10.5605C12.4772 10.8037 12.3806 11.0368 12.2087 11.2088L5.56485 17.8526C5.20686 18.2105 4.62647 18.2105 4.26849 17.8526C4.22374 17.8078 4.18459 17.7596 4.15103 17.7087C3.9161 17.353 3.95526 16.8694 4.26849 16.5562Z" fill="#272937"/>
<path d="M10.2685 16.5562L16.2642 10.5605L10.2685 4.56485C10.2237 4.5201 10.1846 4.47188 10.151 4.42105C9.93945 4.10062 9.95018 3.67661 10.1832 3.36667C10.2089 3.33245 10.2373 3.29963 10.2685 3.26849C10.3642 3.17279 10.4758 3.10267 10.5948 3.05814C10.754 2.99856 10.9264 2.98477 11.0917 3.01678C11.2651 3.05034 11.4306 3.13424 11.5648 3.26849L18.2087 9.91231C18.3806 10.0843 18.4772 10.3174 18.4772 10.5605C18.4772 10.8037 18.3806 11.0368 18.2087 11.2088L11.5648 17.8526C11.2069 18.2105 10.6265 18.2105 10.2685 17.8526C10.2237 17.8078 10.1846 17.7596 10.151 17.7087C9.9161 17.353 9.95526 16.8694 10.2685 16.5562Z" fill="#272937"/>
</svg>
