<svg width="21" height="20" viewBox="0 0 21 20" fill="none" xmlns="http://www.w3.org/2000/svg">
<path d="M10.0237 0.441406C9.45282 0.441206 8.86982 0.796411 8.52452 1.50341L6.40062 5.87611L1.55941 6.56321C0.00251472 6.77981 -0.501886 8.30722 0.622415 9.40522L4.12052 12.8102L3.30852 17.5892C3.04112 19.1362 4.32421 20.0712 5.71351 19.3382C6.25032 19.0542 9.01042 17.6242 10.0237 17.0892L14.3339 19.3382C15.7248 20.0712 17.0119 19.1372 16.7389 17.5892L15.8956 12.8102L19.3938 9.40522C20.5234 8.31122 20.045 6.78421 18.488 6.56321L13.6156 5.87611L11.5229 1.50341C11.1781 0.796111 10.5946 0.441706 10.0237 0.441406ZM10.0237 3.03381L12.0851 7.25041C12.2305 7.54871 12.5062 7.73481 12.8347 7.78141L17.5198 8.46821L14.1153 11.7482C13.877 11.9792 13.7766 12.2962 13.8342 12.6222L14.6463 17.2452L10.4922 15.0592C10.2004 14.9052 9.84692 14.9052 9.55522 15.0592C9.03692 15.3322 6.50372 16.6632 5.40112 17.2452L6.18202 12.6542C6.23792 12.3292 6.13622 11.9782 5.90092 11.7482L2.52761 8.46821L7.18142 7.81261C7.51082 7.76681 7.81632 7.54921 7.96232 7.25041L10.0237 3.03381Z" fill="white"/>
</svg>
