<svg width="21" height="20" viewBox="0 0 21 20" fill="none" xmlns="http://www.w3.org/2000/svg">
<path d="M10.0237 0.441406C9.45281 0.441206 8.86981 0.79641 8.52451 1.50341L6.40061 5.87611L1.55941 6.56321C0.00251473 6.77981 -0.501885 8.30721 0.622414 9.40521L4.12051 12.8102L3.30851 17.5892C3.04111 19.1362 4.32421 20.0712 5.71351 19.3382C6.25031 19.0542 9.01041 17.6242 10.0237 17.0892L14.3339 19.3382C15.7248 20.0712 17.0119 19.1372 16.7389 17.5892L15.8956 12.8102L19.3938 9.40521C20.5234 8.31121 20.045 6.78421 18.488 6.56321L13.6156 5.87611L11.5229 1.50341C11.1781 0.79611 10.5946 0.441706 10.0237 0.441406Z" fill="white"/>
</svg>
