<svg width="24" height="24" viewBox="0 0 24 24" fill="none" xmlns="http://www.w3.org/2000/svg">
<path fill-rule="evenodd" clip-rule="evenodd" d="M22 12C22 17.5228 17.5228 22 12 22C6.47715 22 2 17.5228 2 12C2 6.47715 6.47715 2 12 2C17.5228 2 22 6.47715 22 12ZM11.4759 16.95C11.1997 16.95 10.9759 16.7261 10.9759 16.45V10.5864C10.9759 10.3102 11.1997 10.0864 11.4759 10.0864H12.5181C12.7943 10.0864 13.0181 10.3102 13.0181 10.5864V16.45C13.0181 16.7261 12.7943 16.95 12.5181 16.95H11.4759ZM12.0018 8.63715C11.6982 8.63715 11.4377 8.53647 11.2204 8.33512C11.0062 8.13058 10.8992 7.88608 10.8992 7.60164C10.8992 7.32039 11.0062 7.07909 11.2204 6.87774C11.4377 6.67319 11.6982 6.57092 12.0018 6.57092C12.3054 6.57092 12.5643 6.67319 12.7784 6.87774C12.9958 7.07909 13.1044 7.32039 13.1044 7.60164C13.1044 7.88608 12.9958 8.13058 12.7784 8.33512C12.5643 8.53647 12.3054 8.63715 12.0018 8.63715Z" fill="#08BA44"/>
</svg>
